<svg xmlns="http://www.w3.org/2000/svg" xmlns:xlink="http://www.w3.org/1999/xlink" width="189" height="22"><defs><path id="a" d="M184.896 12.851c.728 0 1.12-.224 1.064-.613-.056-.425-.476-.425-.812-.437-.406-.024-.84.047-.854.508 0 .318.098.613.602.542zm-182.252 1.7c-.42.153-.644.472-.644.873 0 .307.28.484.658.402.392-.071.798-.201.826-.626.028-.295-.462-.696-.84-.649zm2.786.92c.672-.011 1.134-.294 1.05-.684-.07-.33-.322-.543-.77-.507-.49.023-1.064.424-1.022.755.042.39.378.484.742.437zm173.544-3.375c-.154-.012-.28-.035-.42-.047-.294-.024-.56.035-.644.295-.098.319.154.472.49.566.084.024.154.071.238.095.434.106.868.212 1.26-.095.168-.141.266-.295.126-.507-.252-.366-.672-.295-1.05-.307zm3.136-.094c-.42.2-1.274-.118-1.316.507-.042.638.812.46 1.274.567.406.106.868.012.868-.472.014-.449-.322-.59-.826-.602zM8.72 15.2c.84.012 1.638-.307 1.61-.625-.056-.354-.868-.626-1.638-.555-.476.047-.784.271-.812.649-.042.484.476.472.84.531zm151.116-1.629c1.946 1.192 3.584 1.145 5.362-.023-1.75-.154-3.402.023-5.362.023zm-7.266-.023a1.935 1.935 0 0 0-.112.248c.714.519 1.414 1.038 2.142 1.546.658.436 1.246.46 1.806-.024.406-.342.812-.72 1.05-1.192.182-.378.126-.578-.406-.578h-4.48zm-11.256.035c-1.372 0-2.45-.012-3.514 0-.644 0-1.288.012-1.918.012-.518 0-.742.189-.644.65.154.79.35 1.58.77 2.312.378.638.868.709 1.484.19.308-.272.588-.579.84-.898.714-.861 1.974-1.215 2.982-2.266zm8.904.106c-2.338.166-4.368-.4-6.524.012.35.732.896 1.299 1.176 1.983.532 1.228 1.932 1.464 2.996.508.798-.709 1.456-1.535 2.352-2.503zm-26.166.083c1.848 1.64 4.046 2.254 6.104 3.045.308.118.504.07.714-.13.952-.873 1.89-1.746 2.618-2.974-3.164-.118-6.174.035-9.436.06zm10.08 1.664c-.42.425-.448.862-.644 1.24-.308.59-.588 1.132-1.19 1.628-.686.579-1.358.508-2.1.472-.742-.035-1.204-.46-1.61-.932-.756-.885-1.694-1.582-2.926-1.995a20.908 20.908 0 0 1-3.612-1.628c-.616-.343-1.218-.473-1.904-.473-3.43.036-6.86.048-10.276.095-3.43.047-6.86.106-10.276.189-4.06.094-8.12.236-12.194.33-4.326.095-8.666.213-12.992.449-3.78.212-7.574.342-11.354.578-2.002.13-3.99.39-5.978.578-1.232.118-2.45.213-3.682.295a4.599 4.599 0 0 1-2.912-.779c-.42-.283-.336-.66.196-.731.812-.118 1.638-.142 2.45-.19 4.298-.247 8.596-.2 12.88-.341 6.202-.213 12.418-.19 18.62-.579 3.192-.2 6.398-.212 9.59-.318 3.962-.13 7.924-.33 11.9-.402 4.564-.094 9.114-.342 13.692-.307.63 0 1.274.06 1.848-.283a.702.702 0 0 1 .77.012c.56.378 1.232.283 1.848.26 6.846-.248 13.706-.142 20.552-.236 5.754-.071 11.508-.19 17.262-.295a9.992 9.992 0 0 0 2.296-.284c.504-.118 1.12-.248 1.302.425.126.449.56.319.896.342 2.044.107 4.102 0 6.146-.13.882-.047 1.82.19 2.646-.389.266-.189.658.165 1.036.165a.38.38 0 0 1 .364.295c.014.213-.112.39-.336.46a5.67 5.67 0 0 1-1.736.32c-1.554.011-3.094.047-4.648.058-.602 0-1.092.118-1.652.378-2.03.944-4.228 1.582-6.594 1.7-.574.023-1.05-.095-1.512-.402-.896-.602-.994-.578-1.638.284-.7.932-1.568 1.687-2.828 2.089-1.078.33-2.618-.083-3.22-.921-.098-.13-.14-.295-.266-.401-.42-.402-.798-.956-1.33-1.11-.658-.189-.812.602-1.26.885-.924.567-1.47 1.452-2.408 2.042-.798.496-1.862.508-2.562-.07-.7-.579-1.12-1.31-1.554-2.03-.714-1.204-1.764-1.31-2.702-.237-.658.756-1.358 1.464-2.254 2.007-1.89 1.168-3.038.507-3.388-1.003-.112-.425-.252-.803-.756-1.11zM21.67 11.128c-.434.579-.504 1.157-.63 1.7-.07.319.028.555.462.543 1.274-.036 2.576.082 4.004-.165-1.106-1.05-2.38-1.617-3.836-2.078zm8.806 1.924c1.302.213 4.242.07 5.194-.26-1.722-2.43-3.752-1.829-5.194.26zm37.632-2.089c-.896-.779-2.156-1.086-3.122-1.747-.126-.094-.462-.082-.658-.023-1.26.377-2.072 1.192-3.122 2.171 2.156-.07 3.976-.118 5.782-.2.35-.012.728.035 1.12-.2zm-9.436.543c-1.106-1.086-2.38-1.64-3.43-2.408-.42-.318-.84-.189-1.19.13-.812.708-1.162 1.57-1.414 2.608 2.016-.118 3.906-.212 6.034-.33zm-11.242.614c-.406-.862-.77-1.676-1.176-2.467-.462-.909-.7-.932-1.54-.26-.784.65-1.274 1.5-1.988 2.196-.294.306-.812.484-.896 1.05 1.89-.224 3.71-.165 5.6-.52zm25.396-1.228c2.254 0 4.312.036 6.356 0 9.772-.2 19.544-.366 29.316-.283 10.136.094 20.272 0 30.408-.106 4.48-.036 8.96-.106 13.412-.496 1.414-.118 2.772.33 4.158.012.294-.083.7.047.658.401-.042.39.126.885-.532 1.074-.532.154-1.078.177-1.624.177-3.934.047-7.868.06-11.802-.012-5.978-.118-11.956-.271-17.934-.33-9.324-.083-18.648-.13-27.958-.035-4.522.059-9.044.106-13.566.247a783.44 783.44 0 0 0-16.562.673c-4.284.213-8.554.543-12.838.803-3.15.189-6.286.33-9.436.519-4.956.307-9.926.59-14.91.779-2.464.083-4.928.083-7.378.212-.42.024-.826.048-1.232.06-.434.023-.686.165-.658.566.014.189.042.401-.042.566-.042.118-.252.201-.42.26-.21.06-.35-.094-.434-.212a.693.693 0 0 1-.14-.437c-.014-.567-.378-.673-.98-.661-2.156.035-4.298 0-6.426.272-.322.047-.672.141-.812-.201-.14-.33-.378-.661-.182-1.003.154-.284.532-.213.854-.213 1.638 0 3.276-.012 4.928-.023.63-.012 1.274-.048 1.904-.048.546 0 .854-.153.868-.66.014-.543.168-1.075.14-1.606-.056-1.475 1.176-1.581 2.422-1.156.588.189 1.092.566 1.568.92 1.106.826 2.436 1.358 3.696 1.971.798.378 1.778-.023 2.17-.885.392-.85.952-1.57 1.722-2.195.406-.342.77-.39 1.33-.224 1.4.39 2.394 1.239 3.43 2.041 1.19.921 1.736 1.004 2.954.142 1.218-.862 2.45-1.735 3.318-2.892a5.415 5.415 0 0 1 2.156-1.723c.728-.33.938-.224 1.428.343.714.814 1.33 1.64 1.512 2.679.07.39.364.79.658 1.121.7.826 1.792.79 2.45-.07.63-.803 1.176-1.653 1.82-2.444 1.092-1.322 1.484-1.38 3.164-.708a4.525 4.525 0 0 1 1.512.968c.154.141.28.307.448.436 1.372 1.18 2.17 1.169 3.612.083 2.758-2.077 3.346-2.006 6.412-.602 2.086.968 4.06 1.027 6.174.472 1.596-.425 3.164-.118 4.732.024.322.023.602.212.518.566-.07.295-.364.307-.644.284-.448-.024-.91-.06-1.344-.13-1.484-.225-2.884-.036-4.354.684z"/></defs><g fill="none" fill-rule="evenodd"><mask id="b" fill="#fff"><use xlink:href="#a"/></mask><use fill="#FFF" xlink:href="#a"/><g fill="#00334A" mask="url(#b)"><path d="M-6-9h204v34H-6z"/></g></g></svg>