<svg width="302" height="21" xmlns="http://www.w3.org/2000/svg"><path d="M99.39 10.548c1.634.049 3.294.086 4.953.107 1.71.023 3.421-.02 5.132-.031 5.27-.033 10.542-.065 15.813-.094 4.46-.024 8.92-.1 13.378-.053 7.975.085 15.948.233 23.922.38 5.02.093 10.038.242 15.058.35 5.3.116 10.601.233 15.903.313 3.456.052 6.914.062 10.372.048 1.47-.006 2.94-.094 4.407-.195 1.146-.078 1.414-.24 1.454-1.183.044-1.023.582-3.259 1.512-4.494 1.615-2.147 5.053-3.774 5.183-3.765.39.027.508.248.483.777-.082 1.696-.594 3.23-1.58 4.555-1.522 2.046-3.301 2.716-3.997 3.606 1.119-.43 3.445-.896 5.105-.896 2.833 0 5.67 1.34 6.82 1.91.392.024.463.505.118.674-1.204.592-3.52 1.104-6.211.917-3.25-.227-4.859-1.316-6.03-1.738-.186-.067-.26-.373-.443-.658-.615.666-1.331.796-2.18.794-4.226-.008-8.454.08-12.68.055-4.265-.025-8.53-.128-12.794-.226-4.787-.109-9.572-.272-14.359-.369-3.73-.076-7.464-.075-11.196-.134-2.07-.033-4.14-.143-6.211-.175a881.813 881.813 0 0 0-9.808-.094c-3.557-.016-7.115-.023-10.672-.002-3.75.022-7.498.09-11.248.122-2.469.02-4.938-.003-7.406.013-4.22.025-8.442.034-12.662.098-.733.011-1.22-.644-.137-.612Zm-1.835 2.646c.99.023 1.972.07 2.953.065 4.79-.026 9.581-.068 14.37-.103.572-.005 1.142 0 1.712-.005 5.89-.038 11.78-.084 17.67-.111 1.805-.009 3.61.086 5.412.044 4.221-.096 8.441-.25 12.661-.372.664-.019 1.33.012 1.995-.003 3.222-.071 6.444-.155 9.666-.223.616-.013 1.195-.049 1.936.042 1.217.148 1.694 1.363.665 1.56-1.03.196-2.882.07-4.335.07-3.892-.005-7.785.026-11.677.023-1.94 0-3.881-.074-5.821-.064-3.705.02-7.41.058-11.113.12-4.368.07-17.972-.39-19.241-.325-5.176.26-10.348.235-15.523.018-.327-.014-.657.01-1.133.02.862 1.75.126 3.317-.514 4.212-.523.732-2.255 2.024-2.778 1.877-.523-.146-1.155-3.388.523-5.144-1.183.488-2.786.718-4.209.585-1.4-.13-4.263-.902-4.263-1.292 0-.341 2.517-1.287 3.713-1.438 1.54-.195 3.18-.084 4.67.26 0 0-1.82-.907-2.567-2.304-.558-1.272-.777-3.721-.46-3.807.732-.197 3.597 1.35 5.002 3.332.717 1.012.614 2.225.686 2.963Zm-8.082-1.997c-5.6.179-11.206.143-16.81.227-5.079.075-44.267.23-49.347.288-3.942.046-7.886 0-11.828-.01-.283 0-.574-.006-.848-.063-.523-.11-1.016-.265-.956-.893.064-.68.6-.642 1.14-.621 2.042.081 4.083.185 6.125.233 2.277.053 4.555.061 6.832.076 2.654.017 39.42.047 42.073.022 3.463-.031 6.926-.11 10.388-.168 3.752-.062 7.503-.122 11.255-.18.19-.004 1.283.08 1.468.055.898-.056 1.689 1.063.508 1.034Zm117.091-4.301c.265.266-.042.64-.568.62-2.229-.083-4.459-.172-6.689-.187-2.18-.016-4.359.064-6.539.086-3.608.034-7.217.036-10.825.087-3.607.05-7.213.163-10.82.211-2.467.033-4.935-.006-7.403.006-4.6.022-9.202.06-13.803.084-1.568.008-3.137-.025-4.705-.008-3.554.04-12.943.07-14.08.109-3.503.121-7.004.288-10.506.425-1.793.07-3.587.139-5.381.15-.557.005-1.133-.134-1.67-.289-1.336-.385-2.22-1.958-1.137-2.317 1.084-.358 7.82.284 11.731.405 2.7.083 5.392.313 8.092.317 3.419.004 6.837-.075 10.255-.087 5.793-.019 11.587-.025 17.38-.015 4.746.01 9.492.045 14.237.081 5.602.042 11.202.104 16.803.146 4.557.033 9.114.053 13.67.067.786.003 1.693-.158 1.958.109Zm3.745 5.249c1.21.235 2.937 1.08 3.865 2.026 1.545 1.575 1.813 4.629 1.52 4.773-.294.145-2.675-.747-3.754-1.601-1.078-.855-2.138-2.156-2.154-3.76-.004-.428.148-.858.258-1.328.012-.05.185-.126.265-.11ZM296.474.55c.199.158.22 3.076-1.187 4.477-1.868 1.861-4.188 2.214-4.363 2.172-.26-.063-.664-1.864.933-3.867 1.596-2.004 4.378-2.97 4.617-2.782Zm-.336 13.434c-.21.167-2.664-.686-4.073-2.453-1.407-1.767-1.052-3.356-.822-3.41.154-.038 2.2.273 3.848 1.915 1.241 1.235 1.222 3.81 1.047 3.948Zm.92-4.798c-1.733 0-3.905-.981-3.911-1.313-.006-.276 2.036-1.794 4.014-1.794 2.934 0 4.47 1.472 4.386 1.698-.14.384-1.938 1.409-4.49 1.409Zm-78.483-2.522c.09-.123.974-.136 1.448-.094 5.855.523 58.665.607 64.542.51 1.42-.023 2.843.062 4.264.059.539-.001 1.207-.136 1.465.127.257.264-.318.5-.835.49-1.232-.02-2.464-.067-3.697-.076-3.128-.023-53.197.012-56.324-.057-3.17-.07-6.337-.23-9.505-.364-.446-.019-1.128-.015-1.296-.084-.169-.069-.152-.388-.062-.511Zm-113.08-.757c.455-.118.983.27.901.858-.029.21-.21.536-.547.543-.336.007-.697-.33-.747-.562-.069-.322-.063-.72.392-.839Zm3.668.066c.256.17.437.601.224.939a.969.969 0 0 1-1.166.352c-.578-.243-.407-.723-.273-1.086.234-.634.958-.375 1.215-.205ZM3.834 10.16c.455-.118.983.27.902.857-.03.21-.211.537-.548.544-.336.007-.696-.33-.746-.563-.07-.32-.063-.72.392-.838Zm3.668.066c.257.17.438.6.224.939a.969.969 0 0 1-1.165.352c-.578-.243-.407-.723-.273-1.086.233-.634.957-.375 1.214-.205Zm-6.156 0c.257.17.438.6.225.939a.969.969 0 0 1-1.166.352c-.578-.243-.407-.723-.273-1.086.233-.634.958-.375 1.214-.205Zm171.665 3.89c-.455.118-.983-.27-.901-.858.029-.21.21-.536.547-.543.336-.007.697.33.747.562.069.322.063.72-.393.839Zm-3.892-1.005a.969.969 0 0 1 1.166-.352c.578.243.407.723.273 1.086-.234.633-.958.375-1.215.205-.257-.17-.437-.601-.224-.939Z" fill="#000" fill-rule="evenodd"/></svg>