<svg width="300" height="30" xmlns="http://www.w3.org/2000/svg"><path d="M243.995 10.131c.114-.117.223-.236.323-.355 1.918-2.286 2.252-6.717 1.887-6.927-.365-.21-3.32 1.084-4.66 2.324-1.337 1.24-2.654 3.128-2.673 5.456-.003.394.071.788.16 1.197-.583-.291-1.225-.365-1.935-.364-5.725.013-11.451-.12-17.176-.083-5.777.038-11.553.193-17.328.339-6.483.163-12.964.406-19.448.552-5.053.114-10.11.112-15.164.2-2.805.05-5.608.214-8.413.262-4.428.076-8.856.117-13.284.14-4.818.024-9.636.035-14.454.003-5.078-.033-10.157-.137-15.235-.182-3.343-.03-6.687.004-10.031-.02-5.717-.038-11.434-.052-17.15-.147-.994-.016-1.653.963-.185.915 2.214-.073 4.461-.128 6.71-.16 2.315-.033 4.633.031 6.95.047 7.14.048 14.278.097 21.418.14 6.04.037 12.081.15 18.12.08 10.8-.128 21.6-.348 32.4-.569 6.799-.138 13.596-.36 20.395-.523 7.18-.173 14.359-.348 21.54-.467 4.682-.08 9.365-.093 14.048-.072 1.99.009 3.983.14 5.968.291 1.554.118 1.916.359 1.972 1.768.06 1.529.787 4.871 2.046 6.718 2.187 3.21 6.845 5.64 7.02 5.627.53-.04.69-.37.655-1.161-.11-2.535-.805-4.828-2.14-6.808-2.062-3.059-4.47-4.06-5.413-5.39 1.514.643 4.664 1.339 6.913 1.339 3.837 0 7.679-2.004 9.238-2.855.53-.036.627-.755.16-1.007-1.63-.886-4.77-1.651-8.414-1.37-2.023.155-3.577.584-4.82 1.062Zm-3.891 2.42a2.853 2.853 0 0 1-.055.098 4.004 4.004 0 0 0-.054-.063l.109-.035Zm-164.44 1.32c1.232.085 2.316-1.617.697-1.572-7.674-.274-15.36-.22-23.041-.347-6.962-.114-13.921-.35-20.883-.44-5.404-.069-10.81.002-16.214.016-.388 0-.787.01-1.161.097-.718.169-1.393.403-1.311 1.359.089 1.035.822.978 1.563.945 2.798-.123 5.595-.281 8.395-.354 3.12-.081 6.243-.093 9.364-.116 3.638-.026 7.277-.07 10.914-.034 4.747.048 9.493.17 14.24.256 5.14.094 10.283.186 15.425.275.26.004 1.76-.123 2.012-.085Zm103.424-2.155c1.655-.221 2.304-2.033.905-2.326-1.4-.293-3.92-.106-5.896-.103-5.294.006-10.588-.041-15.881-.037-2.64.001-5.28.11-7.918.096a1227.18 1227.18 0 0 1-15.114-.177c-5.94-.107-24.442.579-26.169.483-7.039-.388-14.074-.351-21.111-.027-.446.02-.894-.015-1.54-.03 1.17-2.608.17-4.945-.7-6.28C84.953 2.225 82.597.3 81.886.518c-.712.218-1.572 5.052.71 7.67-1.608-.728-3.788-1.07-5.723-.874-1.903.194-5.799 1.345-5.799 1.927 0 .509 3.423 1.919 5.05 2.145 2.095.29 4.324.125 6.351-.39 0 0-2.475 1.355-3.491 3.437-.758 1.896-1.057 5.548-.627 5.675.997.295 4.894-2.012 6.805-4.968.975-1.508.834-3.317.933-4.416 1.347-.035 2.682-.106 4.017-.099 6.514.04 13.03.103 19.545.155.775.006 1.551.001 2.327.006 8.01.058 16.022.127 24.033.168 2.453.012 4.908-.129 7.36-.068 5.74.145 11.48.373 17.219.556.903.029 1.809-.018 2.713.004 4.382.106 8.764.231 13.146.333.838.02 1.626.072 2.633-.062Zm-69.865 7.582c-1.806.525-3.003 2.677-1.537 3.167 1.466.49 10.578-.388 15.869-.553 3.65-.113 7.293-.428 10.946-.433 4.624-.005 9.248.103 13.872.118 7.836.026 15.673.035 23.51.02 6.419-.012 12.838-.06 19.258-.11 7.576-.058 15.152-.143 22.728-.199 6.165-.045 12.328-.073 18.492-.092 1.063-.003 2.29.217 2.648-.149.36-.364-.057-.875-.768-.848-3.014.114-6.032.235-9.048.256-2.948.021-5.896-.088-8.845-.116-4.881-.048-9.763-.052-14.644-.12-4.878-.07-9.756-.223-14.635-.29-3.337-.045-6.676.008-10.014-.007-6.224-.03-12.447-.082-18.671-.114-2.122-.012-4.244.034-6.365.01-4.808-.055-17.508-.095-19.046-.15-4.738-.165-9.474-.393-14.211-.58-2.426-.095-4.852-.19-7.28-.206-.753-.006-1.532.184-2.26.396Zm175.36-.496c-.397.097-1.012 2.918 1.42 6.056 2.432 3.137 6.669 4.65 7.032 4.356.303-.247.336-4.817-1.808-7.011-2.845-2.914-6.378-3.466-6.645-3.401Zm8.738 1.337c4.343 0 6.616-1.757 6.493-2.027-.209-.46-2.87-1.683-6.646-1.683-2.564 0-5.779 1.171-5.788 1.568-.008.329 3.015 2.142 5.941 2.142Zm-9.757-1.47c.346-.537-.428-1.021-1.125-1.003-1.662.044-3.323.14-4.984.157-4.218.048-8.436-.023-12.651.117-4.275.142-8.545.472-12.817.745-.6.038-1.52.03-1.747.171-.227.142-.205.795-.084 1.046.122.251 1.314.278 1.953.192 7.894-1.07 15.807-1.242 23.731-1.044 1.915.048 3.832-.126 5.749-.12.726.003 1.628.279 1.975-.26ZM98.53 17.667c-.626-.012-1.298.574-1.391.978-.129.56-.118 1.252.73 1.457.849.207 1.834-.468 1.682-1.49-.056-.366-.395-.933-1.02-.945Zm2.885 2.587c-.864.385-.608 1.143-.408 1.719.35 1.003 1.431.594 1.815.324.384-.27.654-.952.335-1.485-.32-.535-1.069-.857-1.742-.558ZM4.585 13.92c.848.206 1.832-.47 1.68-1.491-.054-.366-.393-.933-1.02-.945-.626-.013-1.298.574-1.392.978-.128.559-.117 1.251.732 1.458Zm4.952-.279c.384-.27.654-.95.335-1.485-.32-.535-1.069-.857-1.742-.558-.864.385-.608 1.144-.408 1.72.35 1.002 1.431.592 1.815.323Zm-7.463 0c.384-.27.654-.95.335-1.485-.32-.535-1.069-.857-1.742-.558-.864.385-.608 1.144-.408 1.72.35 1.002 1.431.592 1.815.323Zm186.838-3.394c.626.012 1.299-.575 1.392-.979.129-.559.117-1.252-.732-1.457-.847-.206-1.833.468-1.68 1.49.054.367.394.934 1.02.946Zm-4.128-.115c.863-.384.608-1.142.408-1.718-.35-1.003-1.431-.594-1.815-.324-.384.27-.654.951-.335 1.485.319.535 1.069.857 1.742.557Zm99.514 7.532c1.502-.342 3.646-1.568 4.797-2.94 1.917-2.287 2.251-6.719 1.887-6.928-.365-.21-3.321 1.084-4.658 2.324-1.339 1.24-2.655 3.128-2.675 5.455-.004.623.184 1.246.321 1.929.014.07.23.182.328.16Z" fill="#eae3d4" fill-rule="evenodd"/></svg>