<svg xmlns="http://www.w3.org/2000/svg" width="155" height="55"><path fill="#7C0514" fill-rule="evenodd" d="M80.068 24.809c.068-1.382.65-2.894.515-3.328-.14-.452-2.008-.845-4.01-1.23-4.844-.929-9.22-4.725-9.083-5.349.165-.744 6.066-.47 9.607 1.772 0 0-4.565-3.309-4.43-9.662.009-.504.32-.58.747-.456.269.078 4.455 1.488 7.295 5.41 0 0-.865-2.307-.373-5.71.493-3.402 1.923-5.46 2.22-5.419.295.044 2.628 3.14 2.28 6.712-.315 3.235-.705 3.892-.481 3.897.105.002 1.116-1.168 2.799-2.716 2.025-1.863 4.13-2.528 4.377-2.399.434.23.39 2.77-.968 5.568-1.207 2.488-3.465 5.2-3.465 5.2s1.185-.414 3.616-.96c2.433-.547 5.014-.22 5.008.03-.007.374-4.072 5.674-11.113 5.896-1.42.046-2.466-.051-2.696.243-.12.152.04 1.328.218 2.583.62.029 1.241.06 1.861.095 13.502.752 26.99 2.479 40.505 2.852 9.612.265 19.328-1.287 28.732-3.466 2.439-.564 1.445.755.162 1.051-8.396 1.946-17.962 3.633-26.54 3.825-12.136.269-24.314-1.486-36.408-2.316a278.392 278.392 0 0 0-8.091-.439c.073.576.123 1.068.117 1.36-.023 1.12-.182 1.565-.93 1.549-.808-.017-1.234-1.583-1.398-2.987-19.574-.608-38.776.992-58.132 5.687-2.434.59-1.46-.714-.183-1.024 18.905-4.585 38.85-6.934 58.242-6.269zm-66.88 5.728c-1.993.625-2.22-.297-.237-.919 18.316-5.743 38.057-9.296 57.158-8.502 1.644.068 1.051 1.444-.689 1.338-18.263-1.122-38.698 2.583-56.232 8.083zm64.224 7.138c-.034 1.622 1.138 3.082 2.819 3.125 1.681.042 1.843-1.855 2.901-.751.926.966-.459 3.055-2.588 3.011-2.793-.06-4.87-2.322-4.654-5.868.221-3.622 3.106-5.975 6.976-5.893 3.778.08 7.92 2.865 7.801 8.52-.101 4.846-3.327 8.968-10.21 8.823-7.84-.165-13.829-6.871-13.694-13.269.036-1.712 2.235-1.818 2.07-.294-.587 5.428 4.365 11.788 10.576 11.92 4.032.083 8.924-1.342 9.035-6.658.08-3.784-2.846-6.1-6.45-6.176-2.704-.056-4.539 1.438-4.582 3.51zM7.926 31.071a1.078 1.078 0 1 1 2.156.044 1.078 1.078 0 0 1-2.156-.044zm-3.644.75a1.078 1.078 0 1 1 2.156.044 1.078 1.078 0 0 1-2.156-.044zM0 32.702a1.078 1.078 0 1 1 2.157.045A1.078 1.078 0 0 1 0 32.702zm64.12 8.844c.57.454-1.173 3.214-2.341 2.4-1.169-.815 1.021-3.455 2.341-2.4zm3.383 4.416c.57.454-1.173 3.214-2.341 2.4-1.168-.815 1.021-3.455 2.341-2.4zm5.101 3.502c.652.324-.47 3.389-1.783 2.839-1.313-.55.27-3.592 1.783-2.84zm16.963-1.982c.54-.488 2.983 1.677 1.991 2.698s-3.245-1.564-1.991-2.698zm2.699-4.25c.405-.606 3.3.903 2.585 2.134-.715 1.232-3.528-.73-2.585-2.135zm-13.576 7.71c.836.07.914 3.393-.727 3.349-1.64-.045-1.214-3.513.727-3.349zm5.677-.355c.786-.384 2.633 2.547 1.14 3.386-1.492.839-2.965-2.494-1.14-3.386z"/></svg>